<?xml version="1.0" encoding="UTF-8" standalone="no"?>
<!-- Created with Inkscape (http://www.inkscape.org/) -->

<svg
   width="1200"
   height="1200"
   viewBox="0 0 317.49996 317.49996"
   version="1.1"
   id="svg1"
   xmlns:xlink="http://www.w3.org/1999/xlink"
   xmlns="http://www.w3.org/2000/svg"
   xmlns:svg="http://www.w3.org/2000/svg">
  <defs
     id="defs1">
    <linearGradient
       id="linearGradient1">
      <stop
         style="stop-color:#00ff80;stop-opacity:1;"
         offset="0"
         id="stop1" />
      <stop
         style="stop-color:#0080ff;stop-opacity:1;"
         offset="1"
         id="stop2" />
    </linearGradient>
    <linearGradient
       xlink:href="#linearGradient1"
       id="linearGradient2"
       x1="250.83902"
       y1="99.516365"
       x2="356.74695"
       y2="282.95425"
       gradientUnits="userSpaceOnUse" />
  </defs>
  <g
     id="layer1"
     transform="translate(-145.01123,-32.460674)">
    <rect
       style="fill:#000000;fill-opacity:1;stroke:#000000;stroke-width:0;stroke-opacity:0.3"
       id="rect1"
       width="317.5"
       height="317.49997"
       x="145.01123"
       y="32.460674"
       rx="33.866661" />
    <path
       id="path4"
       style="fill:url(#linearGradient2);stroke-width:0.264583;fill-opacity:1"
       d="m 197.97008,130.03375 -0.0214,30.61331 108.49225,-62.63803 0.007,-0.004 0.007,0.01164 52.90338,30.54359 -26.45177,15.27194 -26.46448,15.27987 1.8e-4,-7e-4 -108.53587,62.66321 -0.0213,30.51422 0.0429,0.0247 L 409.59446,130.1078 303.88925,68.980459 Z m 26.39475,137.56774 79.35321,45.88867 105.91862,-61.05365 0.0215,-30.71125 -110.18258,63.61394 -0.003,-0.005 -26.45194,-15.27225 26.45847,-15.27581 110.20048,-63.62427 0.0213,-30.56377 z" />
  </g>
</svg>
